<svg width="32" height="32" viewBox="0 0 32 32" fill="none" xmlns="http://www.w3.org/2000/svg">
<g clip-path="url(#clip0_239_4468)">
<path d="M0 2C0 0.895431 0.895431 0 2 0H30C31.1046 0 32 0.895431 32 2V30C32 31.1046 31.1046 32 30 32H2C0.895431 32 0 31.1046 0 30V2Z" fill="#F1F3F5"/>
<path fill-rule="evenodd" clip-rule="evenodd" d="M23.1287 13.5L20.909 15.7197C20.6161 16.0126 20.6161 16.4874 20.909 16.7803C21.2019 17.0732 21.6768 17.0732 21.9697 16.7803L26 12.75L21.9697 8.71967C21.6768 8.42678 21.2019 8.42678 20.909 8.71967C20.6161 9.01256 20.6161 9.48744 20.909 9.78033L23.1287 12H14.75C14.3358 12 14 12.3358 14 12.75C14 13.1642 14.3358 13.5 14.75 13.5H23.1287Z" fill="#848C94"/>
<path fill-rule="evenodd" clip-rule="evenodd" d="M8.87132 20L11.091 22.2197C11.3839 22.5126 11.3839 22.9874 11.091 23.2803C10.7981 23.5732 10.3232 23.5732 10.0303 23.2803L6 19.25L10.0303 15.2197C10.3232 14.9268 10.7981 14.9268 11.091 15.2197C11.3839 15.5126 11.3839 15.9874 11.091 16.2803L8.87132 18.5H17.25C17.6642 18.5 18 18.8358 18 19.25C18 19.6642 17.6642 20 17.25 20H8.87132Z" fill="#848C94"/>
</g>
<defs>
<clipPath id="clip0_239_4468">
<rect width="32" height="32" fill="white"/>
</clipPath>
</defs>
</svg>
