<svg width="28" height="28" viewBox="0 0 28 28" fill="none" xmlns="http://www.w3.org/2000/svg">
<path d="M7.62567 23H20.3743C20.8814 23 21.2775 22.8865 21.5627 22.6596C21.8542 22.439 22 22.1333 22 21.7425C22 21.1374 21.813 20.4976 21.4391 19.8231C21.0715 19.1487 20.5391 18.5184 19.8419 17.9321C19.1511 17.3396 18.3113 16.8606 17.3226 16.495C16.3403 16.1231 15.2311 15.9372 13.9952 15.9372C12.7657 15.9372 11.6566 16.1231 10.6679 16.495C9.68548 16.8606 8.84571 17.3396 8.14855 17.9321C7.45138 18.5184 6.91899 19.1487 6.5514 19.8231C6.1838 20.4976 6 21.1374 6 21.7425C6 22.1333 6.1426 22.439 6.42781 22.6596C6.71935 22.8865 7.11864 23 7.62567 23ZM14.0048 14.2447C14.6829 14.2447 15.3104 14.0619 15.8871 13.6963C16.4639 13.3244 16.9265 12.8233 17.2751 12.193C17.63 11.5627 17.8075 10.8535 17.8075 10.0656C17.8075 9.29032 17.63 8.59696 17.2751 7.98554C16.9265 7.36782 16.4639 6.88246 15.8871 6.52948C15.3104 6.17649 14.6829 6 14.0048 6C13.3266 6 12.6991 6.17964 12.1224 6.53893C11.5457 6.89822 11.0798 7.38673 10.7249 8.00445C10.3763 8.62217 10.202 9.31554 10.202 10.0845C10.202 10.8661 10.3763 11.5721 10.7249 12.2024C11.0798 12.8265 11.5457 13.3244 12.1224 13.6963C12.6991 14.0619 13.3266 14.2447 14.0048 14.2447Z" fill="#141719"/>
</svg>
